# xmcd
#
# Track frame offsets: 
#        150
#        16857
#        36359
#        56479
#        75680
#        91282
#        110771
#        127207
#        145365
#        168538
#        184776
#        201084
#        221571
#        237579
#        258187
#        276798
#        299866
#        317932
#
# Disc length: 4472 seconds
#
# Revision: 2
# Processed by: cddbd v1.5.2PL0 Copyright (c) Steve Scherf et al.
# Submitted via: ExactAudioCopyFreeDBPlugin 1.0
#
DISCID=1e117612
DTITLE=Various Artist - Cafe de Pera 5
DYEAR=2006
DGENRE=Jazz
TTITLE0=Marc Anthony - Amigo
TTITLE1=Gloria Estefan - I'm not giving you up
TTITLE2=Garau - L'injustice
TTITLE3=Eliane Elias - Oye como va
TTITLE4=La Negra - Antes
TTITLE5=Mecano - Hijo de la Luna
TTITLE6=Nina Pastori - Burbujas de amor
TTITLE7=Carly Simon - Moonlight Serenade
TTITLE8=Etta James - I believe I can fly
TTITLE9=Rick Astley - Where do I begin
TTITLE10=Bette Midler - Fever
TTITLE11=Kenny G feat. Michael Bolton - Missing you now
TTITLE12=Lyambiko - Give it up
TTITLE13=John Mayer - Ordinary people
TTITLE14=John Mayer - Your body is a wonderland
TTITLE15=Chris Botti feat. Rosa Passos - Here's that rainy day
TTITLE16=Mario Franoulis - Follow your heart
TTITLE17=Il Divo - Pour que tu m'aimes encore
EXTD=YEAR: 2006
EXTT0=
EXTT1=
EXTT2=
EXTT3=
EXTT4=
EXTT5=
EXTT6=
EXTT7=
EXTT8=
EXTT9=
EXTT10=
EXTT11=
EXTT12=
EXTT13=
EXTT14=
EXTT15=
EXTT16=
EXTT17=
PLAYORDER=
